#!OML:ASF H:\Pregnant\Project 1\Capture day 1\Session 1\femalepreg.ASF
:FULLY-SPECIFIED
:DEGREES
324
root 6.72 15.259 19.8151 23.4232 -11.3588 -2.42436
lowerback -13.2086 -5.93619 -10.7878
upperback -3.75236 -6.31107 -3.05169
thorax 4.16951 -3.1844 1.69741
lowerneck -11.9156 -8.8933 -6.22362
upperneck 17.7668 -13.6934 12.2177
head 8.81966 -5.84498 3.48441
rclavicle 2.62396e-014 -2.54444e-014
rhumerus -48.7715 -5.39367 -72.7944
rradius 30.1055
rwrist -5.04041
rhand -12.1525 -16.2671
rfingers 7.12502
rthumb 13.9101 -45.7819
lclavicle 2.62396e-014 -2.54444e-014
lhumerus -30.5715 12.2388 66.9248
lradius 25.4006
lwrist 34.6198
lhand -22.7383 -5.16153
lfingers 7.12502
lthumb 3.69587 24.7862
rfemur -18.7947 16.06 30.852
rtibia 39.3836
rfoot -11.4514 -0.656541
rtoes -20.8675
lfemur -53.4114 -10.244 -14.5795
ltibia 34.4986
lfoot -2.578 -1.30639
ltoes -19.7942
325
root 6.7005 15.2682 19.922 23.5436 -11.5434 -2.52015
lowerback -13.2029 -5.88643 -11.1357
upperback -3.8144 -6.20009 -3.16262
thorax 4.1076 -3.12704 1.79418
lowerneck -12.115 -8.88896 -6.22002
upperneck 17.9661 -13.7283 12.2956
head 8.93424 -5.83875 3.49719
rclavicle -9.10434e-014 -3.81667e-014
rhumerus -48.9615 -5.44181 -72.6497
rradius 30.0556
rwrist -5.19355
rhand -11.6648 -16.36
rfingers 7.12502
rthumb 14.38 -45.8419
lclavicle -9.10434e-014 -3.81667e-014
lhumerus -30.5197 11.8664 67.2807
lradius 25.1278
lwrist 34.6754
lhand -22.7122 -5.00556
lfingers 7.12502
lthumb 3.72105 24.9417
rfemur -19.7496 15.594 30.9243
rtibia 41.1703
rfoot -9.92651 0.226547
rtoes -19.7301
lfemur -53.2 -10.1393 -14.601
ltibia 34.8539
lfoot -3.11558 -1.04182
ltoes -19.932
326
root 6.68364 15.2789 20.027 23.6746 -11.7602 -2.64376
lowerback -13.1971 -5.81864 -11.4089
upperback -3.87531 -6.07636 -3.26699
thorax 4.0381 -3.06277 1.86013
lowerneck -12.3302 -8.86329 -6.19191
upperneck 18.1306 -13.7238 12.3364
head 9.03136 -5.81598 3.49875
rclavicle -2.3059e-014 6.04305e-014
rhumerus -49.1025 -5.38986 -72.5779
rradius 30.067
rwrist -5.35469
rhand -11.0365 -16.4628
rfingers 7.12502
rthumb 14.9854 -45.9006
lclavicle -2.3059e-014 6.04305e-014
lhumerus -30.4822 11.4293 67.6578
lradius 24.9266
lwrist 34.8026
lhand -22.688 -4.82421
lfingers 7.12502
lthumb 3.7444 25.1226
rfemur -20.786 15.0818 30.9889
rtibia 42.996
rfoot -8.15089 1.09988
rtoes -18.2059
lfemur -52.9711 -10.07 -14.5656
ltibia 35.17
lfoot -3.6109 -0.69154
ltoes -20.1094
327
root 6.66879 15.2897 20.1285 23.8193 -12.0203 -2.77756
lowerback -13.1781 -5.73634 -11.6408
upperback -3.94176 -5.94264 -3.36595
thorax 3.95023 -2.99256 1.91302
lowerneck -12.5572 -8.81508 -6.13759
upperneck 18.2571 -13.679 12.343
head 9.109 -5.77623 3.49013
rclavicle -5.24792e-014 -1.90833e-014
rhumerus -49.2147 -5.1887 -72.6126
rradius 30.1851
rwrist -5.5717
rhand -10.2746 -16.5409
rfingers 7.12502
rthumb 15.7192 -45.9225
lclavicle -5.24792e-014 -1.90833e-014
lhumerus -30.4656 10.9196 68.0575
lradius 24.8019
lwrist 34.9914
lhand -22.6658 -4.60056
lfingers 7.12502
lthumb 3.76581 25.3459
rfemur -21.9102 14.5583 31.0264
rtibia 44.851
rfoot -6.09565 1.90811
rtoes -16.5827
lfemur -52.7373 -9.99249 -14.5149
ltibia 35.4422
lfoot -4.06838 -0.302826
ltoes -20.2606
328
root 6.65559 15.3012 20.2278 23.9551 -12.2981 -2.90691
lowerback -13.1458 -5.64638 -11.833
upperback -4.00046 -5.80607 -3.46834
thorax 3.8586 -2.9208 1.94206
lowerneck -12.8048 -8.74561 -6.05197
upperneck 18.3526 -13.5982 12.319
head 9.17155 -5.72043 3.47075
rclavicle 1.55052e-014 -1.59028e-014
rhumerus -49.2856 -4.90435 -72.721
rradius 30.3743
rwrist -5.78387
rhand -9.40444 -16.6451
rfingers 7.12502
rthumb 16.5571 -45.9588
lclavicle 1.55052e-014 -1.59028e-014
lhumerus -30.4679 10.3304 68.475
lradius 24.7559
lwrist 35.228
lhand -22.644 -4.34081
lfingers 7.12502
lthumb 3.78688 25.6053
rfemur -23.077 14.0154 31.0382
rtibia 46.7111
rfoot -3.84386 2.60177
rtoes -14.5944
lfemur -52.4708 -9.94269 -14.4565
ltibia 35.6634
lfoot -4.49572 0.123615
ltoes -20.3455
329
root 6.64358 15.3136 20.3255 24.0829 -12.5912 -3.02248
lowerback -13.1102 -5.55372 -11.9947
upperback -4.05697 -5.67087 -3.57348
thorax 3.76438 -2.84954 1.95136
lowerneck -13.0426 -8.65367 -5.95778
upperneck 18.4084 -13.48 12.2852
head 9.21351 -5.64924 3.45264
rclavicle 2.98177e-014 4.77083e-014
rhumerus -49.3329 -4.53857 -72.8879
rradius 30.6381
rwrist -5.98162
rhand -8.4395 -16.7341
rfingers 7.12502
rthumb 17.4859 -45.9677
lclavicle 2.98177e-014 4.77083e-014
lhumerus -30.5054 9.66964 68.9085
lradius 24.7843
lwrist 35.4891
lhand -22.6228 -4.05719
lfingers 7.12502
lthumb 3.80734 25.8885
rfemur -24.2764 13.4734 31.0157
rtibia 48.5643
rfoot -1.47701 3.1363
rtoes -12.2651
lfemur -52.1677 -9.90583 -14.4135
ltibia 35.8271
lfoot -4.9009 0.561151
ltoes -20.3565
330
root 6.63222 15.327 20.4223 24.1897 -12.8873 -3.11125
lowerback -13.0707 -5.4631 -12.1363
upperback -4.10203 -5.54071 -3.68713
thorax 3.67812 -2.7813 1.93919
lowerneck -13.2794 -8.54015 -5.84537
upperneck 18.43 -13.3287 12.243
head 9.23833 -5.56341 3.43378
rclavicle 1.86858e-014 -3.18055e-015
rhumerus -49.356 -4.12352 -73.0993
rradius 30.9714
rwrist -6.14209
rhand -7.41114 -16.8103
rfingers 7.12502
rthumb 18.4754 -45.953
lclavicle 1.86858e-014 -3.18055e-015
lhumerus -30.5656 8.94627 69.3514
lradius 24.8737
lwrist 35.7555
lhand -22.602 -3.79076
lfingers 7.12502
lthumb 3.82747 26.1546
rfemur -25.4871 12.9249 30.9557
rtibia 50.4013
rfoot 0.861796 3.5084
rtoes -9.7667
lfemur -51.8102 -9.87654 -14.4098
ltibia 35.9225
lfoot -5.2921 0.98579
ltoes -20.2644
331
root 6.6211 15.3419 20.5185 24.2687 -13.1806 -3.16345
lowerback -13.0257 -5.37615 -12.2658
upperback -4.133 -5.41632 -3.81476
thorax 3.60233 -2.71671 1.90396
lowerneck -13.5008 -8.41183 -5.72643
upperneck 18.408 -13.1562 12.2147
head 9.24411 -5.46819 3.42235
rclavicle 1.35174e-014 6.36111e-015
rhumerus -49.3581 -3.70679 -73.3281
rradius 31.3631
rwrist -6.22517
rhand -6.33585 -16.8727
rfingers 7.12502
rthumb 19.5095 -45.9139
lclavicle 1.35174e-014 6.36111e-015
lhumerus -30.6407 8.15401 69.8003
lradius 25.0135
lwrist 36.0234
lhand -22.5787 -3.57705
lfingers 7.12502
lthumb 3.84991 26.3679
rfemur -26.7015 12.3753 30.8547
rtibia 52.2224
rfoot 3.06593 3.71108
rtoes -7.26661
lfemur -51.3891 -9.87232 -14.4484
ltibia 35.9386
lfoot -5.65378 1.40025
ltoes -20.1453
332
root 6.61 15.3578 20.6129 24.3196 -13.4706 -3.16774
lowerback -12.9597 -5.29371 -12.3987
upperback -4.15323 -5.29969 -3.95961
thorax 3.52616 -2.65625 1.85163
lowerneck -13.7109 -8.27656 -5.60678
upperneck 18.3454 -12.975 12.2098
head 9.23498 -5.3687 3.4204
rclavicle 1.98785e-014 2.8625e-014
rhumerus -49.346 -3.2981 -73.5747
rradius 31.8192
rwrist -6.23481
rhand -5.25653 -16.9152
rfingers 7.12502
rthumb 20.5469 -45.8478
lclavicle 1.98785e-014 2.8625e-014
lhumerus -30.7246 7.31106 70.2459
lradius 25.1933
lwrist 36.2707
lhand -22.5392 -3.45005
lfingers 7.12502
lthumb 3.88811 26.4942
rfemur -27.9362 11.8289 30.7052
rtibia 54.0357
rfoot 5.00535 3.76301
rtoes -5.09359
lfemur -50.9088 -9.86822 -14.5549
ltibia 35.8668
lfoot -5.96796 1.76756
ltoes -20.0958
333
root 6.59852 15.374 20.704 24.3299 -13.7536 -3.11096
lowerback -12.8391 -5.21871 -12.5624
upperback -4.16404 -5.19705 -4.12316
thorax 3.43282 -2.60225 1.79695
lowerneck -13.9303 -8.13786 -5.47244
upperneck 18.2636 -12.7929 12.2163
head 9.22117 -5.26706 3.41982
rclavicle 3.69739e-014 -1.27222e-014
rhumerus -49.313 -2.92854 -73.8232
rradius 32.3189
rwrist -6.15087
rhand -4.20368 -16.9064
rfingers 7.12502
rthumb 21.5584 -45.7265
lclavicle 3.69739e-014 -1.27222e-014
lhumerus -30.8144 6.41988 70.6829
lradius 25.4129
lwrist 36.5022
lhand -22.5035 -3.43783
lfingers 7.12502
lthumb 3.92257 26.5058
rfemur -29.1962 11.2761 30.5066
rtibia 55.8534
rfoot 6.56305 3.67274
rtoes -3.66298
lfemur -50.3695 -9.8794 -14.7299
ltibia 35.706
lfoot -6.22038 2.09539
ltoes -20.1172
334
root 6.58652 15.3909 20.7935 24.3084 -14.0307 -3.00112
lowerback -12.6959 -5.14946 -12.744
upperback -4.16587 -5.10294 -4.30192
thorax 3.33776 -2.55261 1.73506
lowerneck -14.1498 -7.99875 -5.33592
upperneck 18.1637 -12.6128 12.2384
head 9.20269 -5.16546 3.42393
rclavicle -5.64548e-014 -1.27222e-014
rhumerus -49.2664 -2.60087 -74.0672
rradius 32.8633
rwrist -5.98828
rhand -3.21991 -16.871
rfingers 7.12502
rthumb 22.5029 -45.5799
lclavicle -5.64548e-014 -1.27222e-014
lhumerus -30.9139 5.49389 71.1134
lradius 25.6663
lwrist 36.718
lhand -22.4946 -3.57087
lfingers 7.12502
lthumb 3.93114 26.3726
rfemur -30.4757 10.7208 30.2658
rtibia 57.6734
rfoot 7.64183 3.48453
rtoes -3.01917
lfemur -49.771 -9.90364 -14.9683
ltibia 35.4624
lfoot -6.42072 2.39287
ltoes -20.2195
335
root 6.5736 15.4068 20.8796 24.2688 -14.3204 -2.83855
lowerback -12.5214 -5.08614 -12.9691
upperback -4.16926 -5.01779 -4.48751
thorax 3.22739 -2.50657 1.68959
lowerneck -14.37 -7.86059 -5.20227
upperneck 18.0496 -12.4356 12.2746
head 9.18134 -5.06463 3.43286
rclavicle 4.01545e-014 1.04958e-013
rhumerus -49.2152 -2.28654 -74.317
rradius 33.4725
rwrist -5.79712
rhand -2.32674 -16.7532
rfingers 7.12502
rthumb 23.36 -45.3557
lclavicle 4.01545e-014 1.04958e-013
lhumerus -31.0241 4.55569 71.5339
lradius 25.948
lwrist 36.91
lhand -22.5078 -3.80689
lfingers 7.12502
lthumb 3.91839 26.1368
rfemur -31.801 10.1887 29.9801
rtibia 59.4973
rfoot 8.22485 3.1874
rtoes -3.11041
lfemur -49.1412 -9.87766 -15.293
ltibia 35.1478
lfoot -6.58656 2.61244
ltoes -20.3388
336
root 6.55967 15.4212 20.9627 24.1968 -14.6052 -2.62469
lowerback -12.31 -5.02698 -13.2345
upperback -4.16842 -4.9405 -4.68189
thorax 3.10413 -2.46373 1.65697
lowerneck -14.5894 -7.72712 -5.06491
upperneck 17.9278 -12.2675 12.3182
head 9.15866 -4.96748 3.44251
rclavicle -2.62396e-014 -3.18055e-015
rhumerus -49.1561 -2.03123 -74.551
rradius 34.1177
rwrist -5.57008
rhand -1.5987 -16.594
rfingers 7.12502
rthumb 24.0582 -45.106
lclavicle -2.62396e-014 -3.18055e-015
lhumerus -31.1366 3.58899 71.9476
lradius 26.2478
lwrist 37.1049
lhand -22.5399 -4.04272
lfingers 7.12502
lthumb 3.8874 25.9016
rfemur -33.1465 9.6625 29.6661
rtibia 61.3037
rfoot 8.30686 2.78323
rtoes -3.90459
lfemur -48.4743 -9.81034 -15.6992
ltibia 34.7766
lfoot -6.73254 2.75011
ltoes -20.4178
337
root 6.54469 15.4349 21.0443 24.1032 -14.89 -2.37587
lowerback -12.0857 -4.97113 -13.5287
upperback -4.16518 -4.86803 -4.87512
thorax 2.97873 -2.42295 1.64015
lowerneck -14.8034 -7.5984 -4.93377
upperneck 17.802 -12.106 12.3666
head 9.13518 -4.87387 3.45403
rclavicle 3.4191e-014 -2.54444e-014
rhumerus -49.1013 -1.80859 -74.7729
rradius 34.8201
rwrist -5.35352
rhand -1.04915 -16.4143
rfingers 7.12502
rthumb 24.5851 -44.8556
lclavicle 3.4191e-014 -2.54444e-014
lhumerus -31.2526 2.6205 72.3556
lradius 26.5553
lwrist 37.2958
lhand -22.6079 -4.3831
lfingers 7.12502
lthumb 3.82178 25.5624
rfemur -34.5026 9.15767 29.3355
rtibia 63.0674
rfoot 7.97049 2.25812
rtoes -5.06767
lfemur -47.7797 -9.73399 -16.1485
ltibia 34.3658
lfoot -6.85932 2.85854
ltoes -20.4828
